<svg width="185.7" height="112.201" viewBox="0 0 185.7 112.201" xmlns="http://www.w3.org/2000/svg"><g id="svgGroup" stroke-linecap="round" fill-rule="evenodd" font-size="9pt" stroke="#fff" stroke-width="0.25mm" fill="#fff" style="stroke:fff;stroke-width:0.25mm;fill:#fff"><path d="M 41.074 83.236 A 1.736 1.736 0 0 0 39.9 82.801 A 38.072 38.072 0 0 1 39.125 84.781 A 40.904 40.904 0 0 1 33 94.801 A 44.822 44.822 0 0 1 30.337 97.769 A 37.052 37.052 0 0 1 22.85 103.701 A 31.456 31.456 0 0 1 21.644 104.383 Q 16.764 107.001 12.4 107.001 A 9.659 9.659 0 0 1 10.223 106.77 A 6.385 6.385 0 0 1 6.95 104.951 A 5.014 5.014 0 0 1 6.616 104.561 Q 5 102.47 5 98.101 A 29.745 29.745 0 0 1 5.075 96.094 Q 5.268 93.263 5.956 89.12 A 160.279 160.279 0 0 1 6.7 85.001 Q 16.1 74.701 22.8 62.601 A 142.074 142.074 0 0 0 28.345 51.521 A 106.2 106.2 0 0 0 32.85 39.601 A 101.515 101.515 0 0 0 34.688 32.857 Q 35.426 29.69 35.804 26.931 A 39.48 39.48 0 0 0 36.2 21.601 A 27.787 27.787 0 0 0 36.173 20.352 Q 36.097 18.667 35.811 17.207 A 14.589 14.589 0 0 0 34.9 14.201 A 16.281 16.281 0 0 0 34.497 13.339 Q 33.964 12.282 33.335 11.451 A 8.432 8.432 0 0 0 31.65 9.751 A 8.379 8.379 0 0 0 30.588 9.075 A 6.288 6.288 0 0 0 27.6 8.301 Q 25.561 8.301 23.843 9.834 A 9.815 9.815 0 0 0 22.45 11.401 A 14.031 14.031 0 0 0 22.061 11.967 Q 20.693 14.059 19.459 17.441 A 57.328 57.328 0 0 0 18.3 21.001 A 2822.944 2822.944 0 0 0 14.359 35.083 Q 8.298 56.966 4.7 71.551 A 299.658 299.658 0 0 0 2.671 80.294 Q 0 92.717 0 99.201 A 26.495 26.495 0 0 0 0.026 100.389 Q 0.399 108.692 6.119 110.791 A 12.979 12.979 0 0 0 10.6 111.501 A 19.242 19.242 0 0 0 11.867 111.459 Q 16.53 111.151 21.85 108.601 A 40.869 40.869 0 0 0 23.905 107.544 A 44.412 44.412 0 0 0 33.1 100.751 A 42.089 42.089 0 0 0 35.113 98.701 A 35.602 35.602 0 0 0 38.438 94.525 A 405.721 405.721 0 0 1 38.019 96.22 Q 37.021 100.213 36.4 102.201 A 15.014 15.014 0 0 0 36.403 102.508 Q 36.493 106.88 39.15 109.151 Q 41.9 111.501 45.4 111.501 A 17.309 17.309 0 0 0 46.709 111.451 Q 50.242 111.184 53.775 109.47 A 28.575 28.575 0 0 0 58.8 106.301 A 46.841 46.841 0 0 0 64.127 101.432 A 81.755 81.755 0 0 0 63.5 103.526 A 108.526 108.526 0 0 0 62.8 106.101 Q 62.275 108.126 62.144 109.307 A 6.372 6.372 0 0 0 62.1 110.001 Q 62.1 110.401 63.55 110.601 A 33.935 33.935 0 0 0 63.677 110.618 Q 64.594 110.741 65.284 110.781 A 10.647 10.647 0 0 0 65.9 110.801 A 1.746 1.746 0 0 0 65.925 110.801 Q 66.206 110.797 66.35 110.701 Q 66.467 110.623 66.554 110.331 A 2.667 2.667 0 0 0 66.6 110.151 Q 66.7 109.701 66.8 109.401 L 67.7 104.901 A 50.92 50.92 0 0 1 67.897 103.709 Q 68.198 102.018 68.5 101.151 A 34.082 34.082 0 0 1 68.525 101.078 Q 68.867 100.104 69.942 97.203 A 1297.443 1297.443 0 0 1 70.5 95.701 A 14.995 14.995 0 0 1 71.043 94.78 Q 72.557 92.393 75.8 88.901 Q 79.7 84.701 83.8 80.901 Q 87.9 77.101 89.7 76.001 Q 90.2 75.701 90.6 75.701 A 0.553 0.553 0 0 1 90.756 75.724 Q 91.078 75.818 91.4 76.301 A 126.606 126.606 0 0 0 91.373 76.37 Q 89.083 82.153 86.3 90.851 Q 84.375 96.867 83.773 101.157 A 25.721 25.721 0 0 0 83.5 104.701 A 12.523 12.523 0 0 0 83.543 105.761 Q 83.79 108.669 85.45 110.201 A 5.914 5.914 0 0 0 86.614 111.037 Q 87.582 111.57 88.821 111.808 A 11.543 11.543 0 0 0 91 112.001 A 15.899 15.899 0 0 0 91.679 111.986 Q 94.818 111.852 98.003 110.478 A 25.674 25.674 0 0 0 102.55 107.901 A 43.201 43.201 0 0 0 103.629 107.12 A 37.889 37.889 0 0 0 109.37 101.884 A 157.164 157.164 0 0 0 108.986 103.988 Q 108.392 107.395 108.395 108.616 A 3.932 3.932 0 0 0 108.4 108.801 A 1.661 1.661 0 0 0 108.501 109.205 Q 108.698 109.726 109.253 110.348 A 8.959 8.959 0 0 0 109.85 110.951 Q 111.2 112.201 112 112.201 A 0.277 0.277 0 0 0 112.041 112.198 Q 112.551 112.122 113.8 110.201 A 143.844 143.844 0 0 1 116.188 106.734 Q 121.358 99.45 128.6 91.001 A 131.031 131.031 0 0 0 129.297 93.018 Q 131.426 99.023 133.574 103.09 A 33.866 33.866 0 0 0 135.85 106.851 A 14.632 14.632 0 0 0 136.941 108.215 A 11.18 11.18 0 0 0 145.6 112.001 A 10.73 10.73 0 0 0 149.085 111.395 Q 150.802 110.808 152.572 109.653 A 24.935 24.935 0 0 0 155.65 107.251 Q 160.9 102.501 164.6 96.351 A 50.258 50.258 0 0 0 165.926 94.016 Q 168.3 89.544 168.3 86.901 A 10.419 10.419 0 0 0 168.265 86.028 Q 168.155 84.724 167.7 83.851 A 3.636 3.636 0 0 0 167.52 83.542 Q 167.342 83.269 167.14 83.085 A 1.359 1.359 0 0 0 166.2 82.701 A 33.56 33.56 0 0 1 165.766 84.658 A 35.862 35.862 0 0 1 161.4 94.801 A 56.973 56.973 0 0 1 161.291 94.976 Q 159.598 97.682 157.783 99.904 A 34.836 34.836 0 0 1 153.65 104.201 Q 149.5 107.801 146.9 107.801 Q 142.9 107.801 140.2 104.751 Q 137.5 101.701 135.85 97.401 Q 134.2 93.101 132.5 86.501 A 251.217 251.217 0 0 1 134.405 84.391 Q 140.136 78.117 144.785 73.937 A 69.891 69.891 0 0 1 149.4 70.101 A 6.557 6.557 0 0 0 146.458 68.4 A 8.825 8.825 0 0 0 144.1 68.101 A 0.455 0.455 0 0 0 144.059 68.103 Q 142.583 68.235 134.333 77.671 A 371.386 371.386 0 0 0 131.8 80.601 A 545.73 545.73 0 0 0 126.977 86.312 Q 119.413 95.398 113.9 102.901 L 114.8 98.801 A 1832.993 1832.993 0 0 1 116.286 91.926 Q 118.616 81.256 120.3 74.251 A 161.201 161.201 0 0 1 122.048 67.592 A 131.778 131.778 0 0 1 125.4 57.401 Q 131.2 41.901 137.9 30.551 Q 144.6 19.201 151.65 13.101 A 35.243 35.243 0 0 1 153.813 11.369 Q 156.185 9.622 158.529 8.574 A 16.972 16.972 0 0 1 165.5 7.001 A 27.458 27.458 0 0 1 170.208 7.388 A 20.377 20.377 0 0 1 177.35 10.001 A 15.565 15.565 0 0 1 179.162 11.287 Q 181.225 12.981 182.892 15.486 A 28.159 28.159 0 0 1 185.3 20.001 A 1.636 1.636 0 0 0 185.436 19.847 A 1.191 1.191 0 0 0 185.7 19.101 A 31.523 31.523 0 0 0 185.64 17.13 Q 185.46 14.254 184.739 11.864 A 15.001 15.001 0 0 0 180.3 4.751 A 18.495 18.495 0 0 0 174.093 1.115 A 21.218 21.218 0 0 0 167.1 0.001 A 24.942 24.942 0 0 0 158.538 1.509 Q 153.596 3.3 148.996 7.219 A 49.801 49.801 0 0 0 142.05 14.601 A 96.913 96.913 0 0 0 134.454 26.104 Q 127.4 38.482 121.1 56.201 Q 118.6 63.301 115.55 75.001 A 517.399 517.399 0 0 0 112.738 86.288 A 404.958 404.958 0 0 0 111.495 91.689 A 52.799 52.799 0 0 1 104.45 101.401 A 30.175 30.175 0 0 1 101.564 104.181 Q 96.988 108.001 92.5 108.001 Q 88.5 108.001 88.5 104.501 A 10.897 10.897 0 0 1 88.559 103.443 Q 88.824 100.766 90.27 95.259 A 198.709 198.709 0 0 1 91.4 91.151 A 288.765 288.765 0 0 1 93.664 83.607 A 234.266 234.266 0 0 1 97.5 72.401 Q 97.28 71.74 96.466 71.025 A 8.456 8.456 0 0 0 95.8 70.501 A 9.676 9.676 0 0 0 95.621 70.376 Q 94.335 69.501 93.4 69.501 A 3.088 3.088 0 0 0 92.365 69.724 Q 90.572 70.384 87.248 73 A 78.065 78.065 0 0 0 85.05 74.801 A 112.04 112.04 0 0 0 84.076 75.636 A 122.307 122.307 0 0 0 73 86.601 Q 74.5 81.401 75.55 77.101 Q 76.6 72.801 77 71.001 A 1.397 1.397 0 0 0 76.659 70.385 Q 76.312 70.01 75.65 69.751 Q 75.002 69.497 74.433 69.387 A 4.369 4.369 0 0 0 73.6 69.301 A 2.928 2.928 0 0 0 73.345 69.312 Q 72.29 69.404 72.2 70.301 Q 71.2 75.901 70.15 80.451 A 80.875 80.875 0 0 1 70.069 80.799 Q 69.271 84.186 67.534 90.342 A 674.988 674.988 0 0 1 66.613 93.571 A 88.55 88.55 0 0 1 65.15 95.401 Q 61.3 100.101 56.25 103.651 A 21.871 21.871 0 0 1 52.234 105.916 A 15.338 15.338 0 0 1 46.2 107.201 A 6.561 6.561 0 0 1 44.953 107.088 A 4.597 4.597 0 0 1 42.65 105.951 Q 41.3 104.701 41.3 102.401 Q 42.081 99.667 43.9 91.5 A 1083.855 1083.855 0 0 0 45 86.501 Q 45.7 83.401 46.95 77.951 Q 48.2 72.501 48.9 70.001 Q 48.9 69.001 47.4 69.001 A 3.788 3.788 0 0 0 44.761 69.994 A 5.155 5.155 0 0 0 43.8 71.201 A 52.917 52.917 0 0 0 43.655 71.798 Q 43.253 73.494 42.226 78.092 A 2506.857 2506.857 0 0 0 41.6 80.901 A 1131.624 1131.624 0 0 1 41.074 83.236 Z M 20.9 27.301 Q 12.5 57.501 8.2 77.401 Q 15.6 68.101 20.95 57.101 A 141.695 141.695 0 0 0 25.617 46.471 A 103.999 103.999 0 0 0 28.95 36.501 A 109.187 109.187 0 0 0 30.29 31.162 Q 31.6 25.268 31.6 21.401 A 17.98 17.98 0 0 0 31.44 18.937 Q 31.261 17.649 30.885 16.549 A 10.528 10.528 0 0 0 30.7 16.051 Q 29.81 13.827 27.748 13.801 A 3.882 3.882 0 0 0 27.7 13.801 A 1.561 1.561 0 0 0 26.937 14.027 Q 26.004 14.553 24.85 16.301 A 11.565 11.565 0 0 0 24.041 17.802 Q 22.888 20.3 21.47 25.252 A 144.709 144.709 0 0 0 20.9 27.301 Z M 49.034 56.367 A 3.316 3.316 0 0 0 50 56.501 A 4.062 4.062 0 0 0 52.081 55.958 Q 52.762 55.562 53.329 54.877 A 5.844 5.844 0 0 0 53.35 54.851 A 7.042 7.042 0 0 0 53.475 54.694 A 5.588 5.588 0 0 0 54.7 51.201 A 4.832 4.832 0 0 0 54.673 50.68 A 3.741 3.741 0 0 0 53.95 48.801 Q 53.431 48.11 52.507 47.896 A 4.034 4.034 0 0 0 51.6 47.801 A 3.968 3.968 0 0 0 49.497 48.367 A 4.521 4.521 0 0 0 48.3 49.451 A 7.454 7.454 0 0 0 48.295 49.457 A 5.758 5.758 0 0 0 47 53.101 Q 47 54.601 47.8 55.551 A 2.55 2.55 0 0 0 49.034 56.367 Z" vector-effect="non-scaling-stroke"/></g></svg>